<svg id="logo" xmlns="http://www.w3.org/2000/svg" xmlns:xlink="http://www.w3.org/1999/xlink" viewBox="0 0 1957.62 2116.43"><defs><style>.cls-1{fill:#2d303f;}.cls-2{font-size:144.38px;fill:#fff;font-family:Montserrat-Bold, Montserrat;font-weight:700;letter-spacing:0.05em;}.cls-3{font-size:63.54px;fill:#a0a0a0;font-family:Montserrat-SemiBold, Montserrat;font-weight:600;letter-spacing:0.1em;}.cls-4{letter-spacing:0.09em;}.cls-5{letter-spacing:0.1em;}.cls-6{letter-spacing:0.09em;}.cls-7{fill:url(#linear-gradient);}.cls-8{fill:url(#linear-gradient-2);}.cls-9{fill:url(#linear-gradient-3);}.cls-10{fill:url(#linear-gradient-4);}.cls-11{fill:url(#linear-gradient-5);}.cls-12{fill:url(#linear-gradient-6);}.cls-13{fill:url(#linear-gradient-7);}.cls-14{fill:url(#linear-gradient-8);}.cls-15{fill:url(#linear-gradient-9);}</style><linearGradient id="linear-gradient" x1="806.4" y1="424.6" x2="921.44" y2="1330.86" gradientUnits="userSpaceOnUse"><stop offset="0" stop-color="#e5c499"/><stop offset="0.2" stop-color="#d3b087"/><stop offset="0.5" stop-color="#bd9872"/><stop offset="0.77" stop-color="#b08965"/><stop offset="1" stop-color="#ac8461"/></linearGradient><linearGradient id="linear-gradient-2" x1="1118.75" y1="384.95" x2="1233.8" y2="1291.21" xlink:href="#linear-gradient"/><linearGradient id="linear-gradient-3" x1="1190.32" y1="375.87" x2="1305.36" y2="1282.13" xlink:href="#linear-gradient"/><linearGradient id="linear-gradient-4" x1="1249.49" y1="783.8" x2="1267.43" y2="856.76" xlink:href="#linear-gradient"/><linearGradient id="linear-gradient-5" x1="959.95" y1="478.39" x2="973.77" y2="559.78" xlink:href="#linear-gradient"/><linearGradient id="linear-gradient-6" x1="836.02" y1="642.15" x2="838.63" y2="680.24" xlink:href="#linear-gradient"/><linearGradient id="linear-gradient-7" x1="1001.81" y1="399.8" x2="1116.85" y2="1306.06" xlink:href="#linear-gradient"/><linearGradient id="linear-gradient-8" x1="995.52" y1="400.6" x2="1110.56" y2="1306.86" xlink:href="#linear-gradient"/><linearGradient id="linear-gradient-9" x1="949.65" y1="406.42" x2="1064.69" y2="1312.68" xlink:href="#linear-gradient"/></defs><rect class="cls-1" width="1957.62" height="2116.43"/><text class="cls-2" transform="translate(456.88 1513.56)">POETEANDO</text><text class="cls-3" transform="translate(520.39 1621.21)">POEMAS A <tspan class="cls-4" x="430.31" y="0">T</tspan><tspan class="cls-5" x="474.09" y="0">U A</tspan><tspan class="cls-4" x="608.41" y="0">L</tspan><tspan class="cls-6" x="652" y="0">C</tspan><tspan class="cls-5" x="703.6" y="0">ANCE</tspan></text><path class="cls-7" d="M789.86,1104.49c-8.55-10.79-20.3-18.48-30.58-27.64-8.55-7.62-16.43-17-19.34-27.89a23.89,23.89,0,0,0,8.94,6.86c5.14,2.35,10.81,3.21,16.41,3.88a121.45,121.45,0,0,1,13.6,2,68.89,68.89,0,0,1-5.13-6.56c-3.57-5.14-6.63-10.62-10.12-15.81a112.82,112.82,0,0,0-15.08-18c4.44,1.46,9,2.62,13.5,3.91,7.65,2.18,15.35,4.84,21.61,9.74a42.45,42.45,0,0,1,11.1,13.6c-2.17-13.12-8.83-25.53-16.73-36.41-7.51-10.33-16.27-19.82-22.5-31a81.26,81.26,0,0,1-9.67-29.91,76.84,76.84,0,0,0,19,31.66c9.7,9.85,21.72,17.26,30.92,27.59,9.86,11.06,17.38,30.13,17.9,45.13,2-10.33,0-21.47-3.7-31.46-4.78-12.73-12.25-24.25-18.15-36.5s-10.3-25.88-8.26-39.32c2.51-16.54,14.23-30.15,19.55-46A62.43,62.43,0,0,0,803.9,866c4.3,6.17,7,13.53,8.84,20.88,2.61,10.45,3.74,21.25,6.87,31.56a58.1,58.1,0,0,0,11.21,20.74c-5.55-17.13-5.6-36.25-1.48-53.94,6-25.61,19.8-48.7,35.12-70.08,9.14-12.73,18.93-25.13,26-39.13a88.08,88.08,0,0,0,8.23-24.06,178.64,178.64,0,0,1-8.92,59.73c-3.63,11-8.33,21.6-11.73,32.66-2.71,8.83-4.6,18.07-4.35,27.25,1.08-9.74,4.69-19.4,9.23-28.16,7.31-14.11,17-26.91,23.58-41.38a152.53,152.53,0,0,0,7.76-22.21c2.63-9.45,4.76-19.08,7.4-28.52,3.18-11.39,8-24.24,15.65-35.16a86.42,86.42,0,0,0-6.54,21C928.33,750,928,763.07,926.33,776a204.27,204.27,0,0,1-5.94,29.49c12.6-27.86,16.43-60.3,33.68-85.78,10.47-15.46,25.25-27.4,39.79-39.11s29.32-23.67,39.73-39.16c9-13.45,14.45-30.18,12-46a67.87,67.87,0,0,1-12.82,34.07h0a17.23,17.23,0,0,0-25.93-6.71L686.08,860.19,666,875.06a38.67,38.67,0,0,0-12,47.52L791,1214a4.19,4.19,0,0,0,7.89-1c2.43-11.91,4.91-23.82,6.32-35.88C808.11,1151.89,805.64,1124.4,789.86,1104.49Z"/><path class="cls-8" d="M1299.06,601.62c-7.63-12.44-19.72-21.82-33.17-27.48s-28.21-7.78-42.8-7.63a145.56,145.56,0,0,0-69,18.4c3.61-3.91,7.44-7.62,10.91-11.67a86.07,86.07,0,0,0,17.29-32.12A110.52,110.52,0,0,1,1163,556.67c-13.69,8.84-28.76,15.3-43.42,22.45-24.88,12.13-49.43,27-65.76,49.34-12.25,16.76-19.14,36.72-27.75,55.6-5.9,12.92-13,25.8-22.59,36.1,10.27-7.72,18.42-18.67,24.83-30,9.52-16.78,16.33-35.13,27.48-50.87,16.41-23.15,41-39,65.85-52.8,15.64-8.68,31.72-16.83,46.85-26.31a50.07,50.07,0,0,1-7,8.73c-6.1,6.18-13.24,11.34-18.68,18.11-5.85,7.28-9.56,16.2-14,24.48A169.54,169.54,0,0,1,1198,576.84c15-3.56,30.72-5,46-2.64s30.12,8.78,41.28,19.46,18.32,25.85,17.94,41.3a46.54,46.54,0,0,1-11,28.78c-.71.84-1.46,1.65-2.24,2.43a44.23,44.23,0,0,0,15.45-22.52C1309.54,629.65,1306.69,614.06,1299.06,601.62Z"/><path class="cls-9" d="M1296.6,644.67a24.54,24.54,0,0,0-2.73-7.38,27.68,27.68,0,0,0-8.45-9.2c-7.63-5.19-17.28-6.7-26.5-6.09-23,1.53-43.29,15-61,29.67-13.36,11-26.16,23.13-40.6,32.54,8.14-.38,16.14-3.77,23-8.36,8.51-5.71,15.62-13.23,23.15-20.18,11.07-10.23,23.35-19.45,37.34-25.07,10.41-4.18,22-6.29,32.92-3.73C1283.44,629.15,1292.5,635.65,1296.6,644.67Z"/><path class="cls-10" d="M1291.28,815.9c-19.89-6.64-29.06-22.81-32.42-38.77a1.23,1.23,0,0,0-2.41,0c-3.37,16-12.53,32.13-32.42,38.77a1.14,1.14,0,0,0,0,2.17c19.89,6.64,29,22.81,32.42,38.77a1.23,1.23,0,0,0,2.41,0c3.36-16,12.53-32.13,32.42-38.77A1.14,1.14,0,0,0,1291.28,815.9Z"/><path class="cls-11" d="M933.26,520.31c19.89,6.64,29,22.81,32.42,38.77a1.23,1.23,0,0,0,2.41,0c3.37-16,12.53-32.13,32.42-38.77a1.14,1.14,0,0,0,0-2.17c-19.89-6.64-29-22.81-32.42-38.77a1.23,1.23,0,0,0-2.41,0c-3.37,16-12.53,32.13-32.42,38.77A1.14,1.14,0,0,0,933.26,520.31Z"/><path class="cls-12" d="M820.58,662.72c9.95,3.32,14.53,11.4,16.21,19.38a.62.62,0,0,0,1.21,0c1.68-8,6.26-16.06,16.21-19.39a.57.57,0,0,0,0-1.08c-10-3.32-14.53-11.4-16.21-19.38a.62.62,0,0,0-1.21,0c-1.68,8-6.26,16.06-16.21,19.38A.58.58,0,0,0,820.58,662.72Z"/><path class="cls-13" d="M932.76,1322.87,1252,1196.5a49.26,49.26,0,0,0,31-42.88l.76-12.58-329,167.66-23.09,11.77A1.32,1.32,0,0,0,932.76,1322.87Z"/><path class="cls-14" d="M1259.73,1093l0-.27c-68.48,46-262.52,176.55-312.65,212-7.67,5.43-12,8.62-11.93,8.94l292.63-158.19A62,62,0,0,0,1259.73,1093Z"/><path class="cls-15" d="M1292,1195.81,904.43,1337.2a1.64,1.64,0,0,1-1.54-2.87l307.74-227.74a52.25,52.25,0,0,0,16.21-64.22c-32.4-68.91-68.48-145.66-104-221.34a16.15,16.15,0,0,1,2.18-17.19c6.25-7.53,13.35-14.3,19.73-21.72a146.85,146.85,0,0,0,26.13-44.28,53.61,53.61,0,0,1-15.24,10.34c-7.39,3.4-15.64,5.2-23.68,6.41,19.55-7.87,36.12-19.22,48.31-36.41,6.47-9.11,10.74-18.56,16.44-27.54,0,0,0,0,0,0l0-.06a84.29,84.29,0,0,1,6.91-9.51,71.3,71.3,0,0,1,5-5.36l.12-.11A66.17,66.17,0,0,1,1250.07,657a57.11,57.11,0,0,0-6.54-.14h0a58.72,58.72,0,0,0-35.86,13.76c-17.35,14.86-24.56,38.67-40.82,54.71-11.92,11.76-27.76,18.45-42.69,26-9.76,5-21.27,11.36-30.25,19.34l0,0h0a59.59,59.59,0,0,0-7.68,8.1c18.66-17.16,41.46-15.76,60.7-22.72a49.6,49.6,0,0,0,15.38-8.57c-4,11.27-9.83,17.43-18.25,26.09-1.42,1.45-2.85,2.87-4.31,4.28-10.12,9.74-21.18,18.54-30.44,29.11-8.54,9.75-15.54,21-25.53,29.25-12.61,10.42-28.83,15.15-43.68,22-8.52,4-17,9.15-23.5,15.87-.6.61-1.19,1.24-1.74,1.88,9.52-6.93,21-11.38,32.33-15q5.44-1.74,10.93-3.3h0q9-2.53,18.09-4.62c2-.45,4-.9,6-1.4a92.14,92.14,0,0,0-26.52,27.82c-7,11.36-11.42,24.17-18.72,35.34-12.11,18.53-31.13,31.18-51.32,40.69a114.89,114.89,0,0,0,28.32-10.86,70.23,70.23,0,0,0,21-17.63c-.66,1.22-1.32,2.38-2,3.51-13.06,21.56-31.19,29.09-54,39.42-11.6,4.63-24,8.7-33.55,16.45,7.9-3.27,16.47-5.07,25-6.44,9.18-1.47,18.47-2.51,27.5-4.65h0c2.41-.56,4.8-1.2,7.17-1.95,8.23-2.61,16.26-6.68,22.47-12.57-6.44,10.75-17.35,18.72-28.87,24.09-13.81,6.44-28.82,9.83-43.16,15-10.43,3.73-20.79,8.67-29.15,15.77-.68.58-1.35,1.17-2,1.77a59.81,59.81,0,0,1,35.27-4.78,76.85,76.85,0,0,1,7.77,1.83c4.9,1.37,9.73,3,14.64,4.4a61.11,61.11,0,0,0,13.46,2.32c-7.07,2-14.9,1.55-22.37,1.23-9.72-.41-19.57-.47-29.06,1.73a49.35,49.35,0,0,0-17.45,7.64q1-.18,2-.3h0a35.1,35.1,0,0,1,10.77.46c7.13,1.36,13.8,4.45,20.39,7.5,3.88,1.79,7.8,3.6,11.84,5l-.31,0h0a49.92,49.92,0,0,0-18.28,5.64c-7.23,3.89-13.41,9.51-20.13,14.23a41.59,41.59,0,0,1,19.36,4.74c10,5.19,17.91,13.86,23.88,23.44,5.42,8.69,9.51,18.33,16.29,26a47.93,47.93,0,0,0,19.39,13.2c-19-3.27-34.39-13.64-48-24-7.83-5.94-15.61-12.5-25.07-15.17-9.63-2.73-20.09-1.07-29.37,2.7a100.25,100.25,0,0,0-16.86,9.13A45.27,45.27,0,0,1,907.74,1115c6.75,6.91,11.41,15.68,14.4,24.86a106.38,106.38,0,0,1,3.86,16.72A56.22,56.22,0,0,0,906,1140c-15.79-7.5-35.36-5.37-50,4.12a60,60,0,0,0-17.74,18q2.94-15.36,6.36-30.6A846.48,846.48,0,0,1,917.9,931.24c8.14-15.87,16.88-31.43,26.07-46.72s18.79-30.35,28.91-45.07A890.3,890.3,0,0,1,1038.83,755a875.68,875.68,0,0,1,75.76-75.94q20.09-17.79,41.34-34.23c7.09-5.45,14.27-10.79,21.56-16,6.46-4.56,13-9,19.66-13.19a.38.38,0,0,1,.11-.08l.06,0,2.43-1.51.06,0a2.68,2.68,0,0,0,1.31-2.64,2.75,2.75,0,0,0-4.12-2.06c-7.9,4.65-15.42,9.56-22.9,14.64s-14.82,10.33-22.07,15.71q-21.75,16.14-42.32,33.77a882.23,882.23,0,0,0-77.86,75.26,900.44,900.44,0,0,0-68.27,84.21Q947.8,855,933.44,878.07c-9.59,15.36-18.75,31-27.31,46.95a862,862,0,0,0-78.3,202.41,894,894,0,0,0-19.69,107.07,984,984,0,0,0-7,102.21c-.08,4.84,0,10,0,15.1a3.38,3.38,0,0,0,5.58,2.56l11.5-9.89a11.52,11.52,0,0,0,4-8.73v0q0-26.19,1.42-52.33,10.09,21.51,19.75,42a51.43,51.43,0,0,0,60.32,27.67c78.53-21.81,248.93-69.17,347.94-96.68a55.83,55.83,0,0,0,40.44-60.59Zm-373.31-91.42c1-.06,2.1-.07,3.13-.05h.87c23.43.45,43.69,17.71,47.38,43.39q-2.1-1.42-4.32-2.73c-9.39-5.54-20-9.71-27.82-17.26C930.69,1120.72,926.19,1111,918.72,1104.39Z"/></svg>