<svg id="logo" xmlns="http://www.w3.org/2000/svg" viewBox="0 0 1957.62 2116.43"><defs><style>.cls-1{font-size:144.38px;fill:#282c3a;font-family:Montserrat-Bold, Montserrat;font-weight:700;letter-spacing:0.05em;}.cls-2{font-size:63.54px;fill:#a0a0a0;font-family:Montserrat-SemiBold, Montserrat;font-weight:600;letter-spacing:0.1em;}.cls-3{letter-spacing:0.09em;}.cls-4{letter-spacing:0.1em;}.cls-5{letter-spacing:0.09em;}.cls-6{fill:#c1c1c1;}.cls-7{fill:#2d303f;}</style></defs><text class="cls-1" transform="translate(456.88 1513.56)">POETEANDO</text><text class="cls-2" transform="translate(520.39 1621.21)">POEMAS A <tspan class="cls-3" x="430.31" y="0">T</tspan><tspan class="cls-4" x="474.09" y="0">U A</tspan><tspan class="cls-3" x="608.41" y="0">L</tspan><tspan class="cls-5" x="652" y="0">C</tspan><tspan class="cls-4" x="703.6" y="0">ANCE</tspan></text><path class="cls-6" d="M745.25,935.68c1.44,15.69,11,29.5,21.8,40.94s23.32,21.37,33,33.85,15.16,29.91,13.64,44.06a69.2,69.2,0,0,0-26.21-42.65c-11.73-8.78-26.52-13.83-35.74-25.22,1.13,12.17,7.62,22.87,16.63,31.12,4.93,4.51,10.6,8.16,15.55,12.66s9.27,10.15,10.31,16.75c-6.19-7.76-17.15-11.3-26.95-12.89s-19.85-1.44-29.61-3.27a94.46,94.46,0,0,0,41,30.09,112.87,112.87,0,0,1-26.58,1.62c-8.59-.66-17.32-3.64-23.28-9.87s-8.6-15.16-10.09-23.78a152.12,152.12,0,0,1,.35-51.35c1.47-8.62,3.62-17.23,7.78-24.93A37.08,37.08,0,0,1,745.25,935.68Z"/><path class="cls-6" d="M799.83,851.38c.39,7.22-2.28,13.63,1.21,20,8.65,15.65,6.62,43.92,17.44,61.53,3.68,6,10.48,10.86,14.06,16.91s5.23,11.93,7.6,18.07c-.44-20.72-13.51-30.15-17.48-51.87-2.13-11.62-3.26-23.4-5.57-35S809.69,857.91,799.83,851.38Z"/><path class="cls-6" d="M887.09,767.7c.6,15.42-2.59,30.72-6.43,45.66s-8.34,29.76-10.46,45-1.74,31.26,4,45.58c-6.43-17.5-2.11-37.75,4.79-55.08s16.5-33.62,21.43-51.61a105.7,105.7,0,0,0-1.35-60.09C893.34,748.05,886.6,755.45,887.09,767.7Z"/><path class="cls-6" d="M1046.18,602.49c-1.31,34.41-8.6,69.64-26.66,98.43-11.4,18.19-28,34.13-32.31,55.15-.17-11.21,4.23-22.45,9.57-32.32s12-19,17.58-28.69a155.26,155.26,0,0,0,19.69-60.41C1035.28,623.32,1043.69,614.07,1046.18,602.49Z"/><path class="cls-6" d="M1159,562.73c-10.69,3.53-18.77,12.53-24.26,22.35s-8.88,20.66-13.43,31a145.89,145.89,0,0,1-16.46,28.19c17.92-17.37,28.37-41,45.38-59.26,4.56-4.89,9.55-9.37,14-14.4s8.27-10.72,10-17.16C1168.56,556.81,1165.21,560.67,1159,562.73Z"/><path class="cls-6" d="M1294.72,640.18c-2-6.65-7-12.16-12.88-15.8s-12.75-5.55-19.61-6.61c-13.52-2.09-26.59.81-39,6.59-19.29,9-32.32,23.84-46.73,38.16s-32.86,25.28-52.86,28.83c14.77,1,29.68-4.26,42.75-11.21s24.69-16.32,36.09-25.76c9-7.43,17.93-15,28-20.84s21.46-9.94,33.11-9.79S1287.72,630.87,1294.72,640.18Z"/><path class="cls-6" d="M1209.38,665.49c-10.56,7.44-18.51,18-25.91,28.54s-14.54,21.54-24,30.36c-20.65,19.29-51,27.16-68.25,49.54,22.07-19.07,53.71-24.22,75.41-43.71,9.27-8.33,16.23-18.86,23.08-29.28s13.8-21,23-29.31a52.72,52.72,0,0,1,32.38-14c-1.65-1.1-4.78-1.1-6.72-1.22a38.94,38.94,0,0,0-7.32.29,47.25,47.25,0,0,0-14.3,4.43A55.15,55.15,0,0,0,1209.38,665.49Z"/><path class="cls-6" d="M1100.05,803c-12.06,12.79-21.07,29.06-35.47,39.31-8,5.66-17.21,9.17-25.92,13.58s-17.28,10-22.21,18.48c10.17-9.46,23.9-13.35,37.24-17.21s27.17-7.79,37.8-16.72c13.17-11.06,19.69-28.37,32.43-39.93,6-5.45,9.5-12.84,15.32-18.49s11.89-11.12,17-17.46,9.15-13.7,10.35-21.73a46.11,46.11,0,0,1-17.39,9.67c-5.92,10.65-16.53,18.54-27.85,23.46-13.41,5.83-28,8.17-42.29,11.43s-28.71,7.69-40.08,16.89a219.68,219.68,0,0,1,52.81-15.67c12.55-2,25.8-3.17,36.47-10.09-6.81,7.44-17.19,11-26.92,13.68s-19.84,4.66-28.55,9.76c6-3.45,12.85-4.83,19.61-6.12s13.62-2.08,20.33-3.64A69.09,69.09,0,0,0,1100.05,803Z"/><path class="cls-6" d="M1081.39,845.74c-11.14,4-23.75,10-30.73,19.59-3.28,4.5-6,10.95-8.59,17.6a47.74,47.74,0,0,1-21.71,24.83l-.2.11c-9.71,5.21-20.32,8.44-30.6,12.42s-20.47,8.89-28.23,16.72a142.7,142.7,0,0,1,32.08-15.77c8.87-3,18.05-5,26.69-8.63a61,61,0,0,0,12.07-6.6c-12,21.38-25,37.29-46.55,49.63,20.07-6.88,38.23-18.81,51.67-35.23,10.22-12.5,17.69-27,27.25-40A152.48,152.48,0,0,1,1096.89,848C1091.7,847.21,1086.32,844,1081.39,845.74Z"/><path class="cls-6" d="M967.65,989.38c15.91-6.77,32.46-13.12,45.32-24.68,3.41-3.06,6.52-6.46,10.11-9.31s7.78-5.18,12.34-5.62c-1.6,15.26-12.82,28.13-26.05,35.87s-28.45,11.27-43.31,15c-10.84,2.74-21.74,5.71-31.82,10.65-2.74,1.34-5.28,3.06-8,4.45,1.18-2.39,4.2-4.59,6.2-6.33a79.89,79.89,0,0,1,7.77-6,128.52,128.52,0,0,1,17.21-9.57C960.82,992.33,964.23,990.83,967.65,989.38Z"/><path class="cls-6" d="M985.41,1015.66c-16.08-2.15-32.77-1.36-48,4.16s-29,16-36.76,30.25c7.7-10.52,20.37-16.93,33.08-19.88s25.94-2.64,38.95-1.68c5.79.42,11.73,1,17.33-.58s10.91-5.65,12-11.35C996.15,1017,991.25,1016.45,985.41,1015.66Z"/><path class="cls-6" d="M949.92,1122.07c9.38,9,15.73,23.08,22.06,34.47,3.43-13.58-2.27-25.71-9-34.76a51.81,51.81,0,0,0-27.26-18.89,39.87,39.87,0,0,0-11.69-1.62c-.91,0-5.15-.13-5.67.7-.74,1.18,2,1.88,2.69,2.11a72.14,72.14,0,0,1,19.33,10A86.77,86.77,0,0,1,949.92,1122.07Z"/><path class="cls-6" d="M1197.34,615.57c-58.06,19.29-159.88,133.11-159.88,133.11-54.77,64.38-104.19,135.77-139.68,212.48-15.75,34-31.52,68.13-43.77,103.57s-20.32,72.71-21.47,110.19a78,78,0,0,1,105.34-.26c-.87-13.69-1.77-27.57-6.11-40.59s-12.58-25.3-24.79-31.56c13.89-8.15,31.88-4.22,46,3.43s26.39,18.68,41,25.49,33.38,8.55,45.65-1.87c-16.94-8.71-29-24.31-41.67-38.56s-27.54-28.22-46.28-31.63A83.18,83.18,0,0,1,983,1047.48c-11-2.89-22.36-5.8-33.56-3.93-15,2.51-27.19,13.13-38.44,23.38-9.41,8.58-19.36,17.49-31.11,21.86,20.44-85.26,55.59-160.77,95.25-225a71,71,0,0,1,33.69-28.67l.25-.11c19.3-7.74,40.93-10.37,58.51-21.2-25.35,9.81-53.21,13.33-77.22,26.14C1085.13,696.65,1197.34,615.57,1197.34,615.57Z"/><path class="cls-7" d="M914.23,779.83c2.63-9.45,4.76-19.08,7.4-28.52,3.18-11.39,8-24.24,15.65-35.16a86.42,86.42,0,0,0-6.54,21C928.33,750,928,763.07,926.33,776a204.27,204.27,0,0,1-5.94,29.49c12.6-27.86,16.43-60.3,33.68-85.78,10.47-15.46,25.25-27.4,39.79-39.11s29.32-23.67,39.73-39.16c9-13.45,14.45-30.18,12-46a67.87,67.87,0,0,1-12.82,34.07h0a17.23,17.23,0,0,0-25.93-6.71L686.08,860.19,666,875.06a38.67,38.67,0,0,0-12,47.52L791,1214a4.19,4.19,0,0,0,7.89-1c2.43-11.91,4.91-23.82,6.32-35.88,2.94-25.24.48-52.73-15.3-72.64-8.55-10.79-20.3-18.48-30.58-27.64-8.55-7.62-16.43-17-19.34-27.89a23.89,23.89,0,0,0,8.94,6.86c5.13,2.35,10.81,3.21,16.41,3.88a121.45,121.45,0,0,1,13.6,2,68.89,68.89,0,0,1-5.13-6.56c-3.57-5.14-6.63-10.62-10.12-15.81a112.82,112.82,0,0,0-15.08-18c4.44,1.46,9,2.62,13.5,3.91,7.65,2.18,15.35,4.84,21.61,9.74a42.45,42.45,0,0,1,11.1,13.6c-2.17-13.12-8.83-25.53-16.73-36.41-7.51-10.33-16.27-19.82-22.5-31a81.26,81.26,0,0,1-9.67-29.91,76.84,76.84,0,0,0,19,31.66c9.7,9.85,21.72,17.26,30.92,27.59,9.86,11.06,17.38,30.13,17.9,45.13,2-10.33,0-21.47-3.7-31.46-4.78-12.73-12.25-24.25-18.15-36.5s-10.3-25.88-8.26-39.32c2.51-16.54,14.23-30.15,19.55-46A62.43,62.43,0,0,0,803.9,866c4.3,6.17,7,13.53,8.84,20.88,2.61,10.45,3.74,21.25,6.87,31.56a58.1,58.1,0,0,0,11.21,20.74c-5.55-17.13-5.6-36.25-1.48-53.94,6-25.61,19.8-48.7,35.12-70.08,9.14-12.73,18.93-25.13,26-39.13a88.08,88.08,0,0,0,8.23-24.06,178.64,178.64,0,0,1-8.92,59.73c-3.63,11-8.33,21.6-11.73,32.66-2.71,8.83-4.6,18.07-4.35,27.25,1.08-9.74,4.69-19.4,9.23-28.16,7.31-14.11,17-26.91,23.58-41.38A152.53,152.53,0,0,0,914.23,779.83Z"/><path class="cls-7" d="M1292.23,663.74c-.71.84-1.46,1.65-2.24,2.43a44.23,44.23,0,0,0,15.45-22.52c4.1-14,1.25-29.59-6.38-42s-19.72-21.82-33.17-27.48-28.21-7.78-42.8-7.63a145.56,145.56,0,0,0-69,18.4c3.61-3.91,7.44-7.62,10.91-11.67a86.07,86.07,0,0,0,17.29-32.12A110.52,110.52,0,0,1,1163,556.67c-13.69,8.84-28.76,15.3-43.42,22.45-24.88,12.13-49.43,27-65.76,49.34-12.25,16.76-19.14,36.72-27.75,55.6-5.9,12.92-13,25.8-22.59,36.1,10.27-7.72,18.42-18.67,24.83-30,9.52-16.78,16.33-35.13,27.48-50.87,16.41-23.15,41-39,65.85-52.8,15.64-8.68,31.72-16.83,46.85-26.31a50.07,50.07,0,0,1-7,8.73c-6.1,6.18-13.24,11.34-18.68,18.11-5.85,7.28-9.56,16.2-14,24.48A169.54,169.54,0,0,1,1198,576.84c15-3.56,30.72-5,46-2.64s30.12,8.78,41.28,19.46,18.32,25.85,17.94,41.3A46.54,46.54,0,0,1,1292.23,663.74Z"/><path class="cls-7" d="M1293.87,637.29a27.55,27.55,0,0,0-8.45-9.19c-7.63-5.2-17.28-6.71-26.5-6.1-23,1.53-43.29,15-61,29.67-13.36,11-26.16,23.13-40.6,32.54,8.14-.38,16.14-3.77,23-8.36,8.51-5.71,15.62-13.23,23.15-20.18,11.07-10.23,23.35-19.45,37.34-25.07,10.41-4.18,22-6.29,32.92-3.73,9.75,2.28,18.81,8.78,22.91,17.8A24.54,24.54,0,0,0,1293.87,637.29Z"/><g id="Artwork_50" data-name="Artwork 50"><path class="cls-7" d="M1224,818.07c19.89,6.64,29,22.81,32.42,38.77a1.23,1.23,0,0,0,2.41,0c3.36-16,12.53-32.13,32.42-38.77a1.14,1.14,0,0,0,0-2.17c-19.89-6.64-29.06-22.81-32.42-38.77a1.23,1.23,0,0,0-2.41,0c-3.37,16-12.53,32.13-32.42,38.77A1.14,1.14,0,0,0,1224,818.07Z"/></g><g id="Artwork_50-2" data-name="Artwork 50"><path class="cls-7" d="M933.26,520.31c19.89,6.64,29,22.81,32.42,38.77a1.23,1.23,0,0,0,2.41,0c3.37-16,12.53-32.13,32.42-38.77a1.14,1.14,0,0,0,0-2.17c-19.89-6.64-29-22.81-32.42-38.77a1.23,1.23,0,0,0-2.41,0c-3.37,16-12.53,32.13-32.42,38.77A1.14,1.14,0,0,0,933.26,520.31Z"/></g><g id="Artwork_50-3" data-name="Artwork 50"><path class="cls-7" d="M820.58,662.72c9.95,3.32,14.53,11.4,16.21,19.38a.62.62,0,0,0,1.21,0c1.68-8,6.26-16.06,16.21-19.39a.57.57,0,0,0,0-1.08c-10-3.32-14.53-11.4-16.21-19.38a.62.62,0,0,0-1.21,0c-1.68,8-6.26,16.06-16.21,19.38A.58.58,0,0,0,820.58,662.72Z"/></g><path class="cls-7" d="M954.77,1308.7l329-167.66-.76,12.58a49.26,49.26,0,0,1-31,42.88L932.76,1322.87a1.32,1.32,0,0,1-1.08-2.4Z"/><path class="cls-7" d="M947,1304.67c-7.67,5.43-12,8.62-11.93,8.94l292.63-158.19a62,62,0,0,0,32-62.46l0-.27C1191.21,1138.7,997.17,1269.24,947,1304.67Z"/><path class="cls-7" d="M1292,1195.81h0L904.43,1337.2a1.64,1.64,0,0,1-1.54-2.87l307.74-227.74a52.25,52.25,0,0,0,16.21-64.22c-32.4-68.91-68.48-145.66-104-221.34a16.15,16.15,0,0,1,2.18-17.19c6.25-7.53,13.35-14.3,19.73-21.72a146.85,146.85,0,0,0,26.13-44.28,53.61,53.61,0,0,1-15.24,10.34c-7.39,3.4-15.64,5.2-23.68,6.41,19.55-7.87,36.12-19.22,48.31-36.41,6.47-9.11,10.74-18.56,16.44-27.54,0,0,0,0,0,0l0-.06a84.29,84.29,0,0,1,6.91-9.51,71.3,71.3,0,0,1,5-5.36l.12-.11A66.17,66.17,0,0,1,1250.07,657a57.11,57.11,0,0,0-6.54-.14h0a58.72,58.72,0,0,0-35.86,13.76c-17.35,14.86-24.56,38.67-40.82,54.71-11.92,11.76-27.76,18.45-42.69,26-9.76,5-21.27,11.36-30.25,19.34l0,0h0a59.59,59.59,0,0,0-7.68,8.1c18.66-17.16,41.46-15.76,60.7-22.72a49.6,49.6,0,0,0,15.38-8.57c-4,11.27-9.83,17.43-18.25,26.09-1.42,1.45-2.85,2.87-4.31,4.28-10.12,9.74-21.18,18.54-30.44,29.11-8.54,9.75-15.54,21-25.53,29.25-12.61,10.42-28.83,15.15-43.68,22-8.52,4-17,9.15-23.5,15.87-.6.61-1.19,1.24-1.74,1.88,9.52-6.93,21-11.38,32.33-15q5.44-1.74,10.93-3.3h0q9-2.53,18.09-4.62c2-.45,4-.9,6-1.4a92.14,92.14,0,0,0-26.52,27.82c-7,11.36-11.42,24.17-18.72,35.34-12.11,18.53-31.13,31.18-51.32,40.69a114.89,114.89,0,0,0,28.32-10.86,70.23,70.23,0,0,0,21-17.63c-.66,1.22-1.32,2.38-2,3.51-13.06,21.56-31.19,29.09-54,39.42-11.6,4.63-24,8.7-33.55,16.45,7.9-3.27,16.46-5.07,25-6.44,9.18-1.47,18.47-2.51,27.5-4.65h0c2.41-.56,4.8-1.2,7.17-1.95,8.23-2.61,16.26-6.68,22.47-12.57-6.44,10.75-17.35,18.72-28.87,24.09-13.81,6.44-28.82,9.83-43.16,15-10.43,3.73-20.79,8.67-29.15,15.77-.68.58-1.35,1.17-2,1.77a59.81,59.81,0,0,1,35.27-4.78,76.85,76.85,0,0,1,7.77,1.83c4.9,1.37,9.73,3,14.64,4.4a61.11,61.11,0,0,0,13.46,2.32c-7.07,2-14.9,1.55-22.37,1.23-9.72-.41-19.57-.47-29.06,1.73a49.35,49.35,0,0,0-17.45,7.64q1-.18,2-.3h0a35.1,35.1,0,0,1,10.77.46c7.13,1.36,13.8,4.45,20.39,7.5,3.88,1.79,7.8,3.6,11.84,5l-.31,0h0a49.92,49.92,0,0,0-18.28,5.64c-7.23,3.89-13.41,9.51-20.13,14.23a41.59,41.59,0,0,1,19.36,4.74c10,5.19,17.91,13.86,23.88,23.44,5.42,8.69,9.51,18.33,16.29,26a47.93,47.93,0,0,0,19.39,13.2c-19-3.27-34.39-13.64-48-24-7.83-5.94-15.61-12.5-25.07-15.17-9.63-2.73-20.09-1.07-29.37,2.7a101,101,0,0,0-16.86,9.13A45.27,45.27,0,0,1,907.74,1115c6.75,6.91,11.41,15.68,14.4,24.86a106.38,106.38,0,0,1,3.86,16.72A56.22,56.22,0,0,0,906,1140c-15.79-7.5-35.36-5.37-50,4.12a60,60,0,0,0-17.74,18q2.94-15.36,6.36-30.6A846.48,846.48,0,0,1,917.9,931.24c8.14-15.87,16.88-31.43,26.07-46.72s18.79-30.35,28.91-45.07A890.3,890.3,0,0,1,1038.83,755a875.68,875.68,0,0,1,75.76-75.94q20.09-17.79,41.34-34.23c7.09-5.45,14.27-10.79,21.56-16,6.46-4.56,13-9,19.66-13.19a.38.38,0,0,1,.11-.08l.06,0,2.43-1.51.06,0a2.68,2.68,0,0,0,1.31-2.64,2.75,2.75,0,0,0-4.12-2.06c-7.9,4.65-15.42,9.56-22.9,14.64s-14.82,10.33-22.07,15.71q-21.75,16.14-42.32,33.77a882.23,882.23,0,0,0-77.86,75.26,900.44,900.44,0,0,0-68.27,84.21Q947.8,855,933.44,878.07c-9.59,15.36-18.75,31-27.31,46.95a862,862,0,0,0-78.3,202.41,894,894,0,0,0-19.69,107.07,984,984,0,0,0-7,102.21c-.08,4.84,0,10,0,15.1a3.38,3.38,0,0,0,5.58,2.56l11.5-9.89a11.51,11.51,0,0,0,4-8.73v0q0-26.19,1.42-52.33,10.09,21.51,19.75,42a51.43,51.43,0,0,0,60.32,27.67c78.53-21.81,248.93-69.17,347.94-96.68A55.83,55.83,0,0,0,1292,1195.81Zm-373.31-91.42c1-.06,2.1-.07,3.13-.05h.87c23.43.45,43.69,17.71,47.38,43.39q-2.1-1.42-4.32-2.73c-9.39-5.54-20-9.71-27.82-17.26C930.69,1120.72,926.19,1111,918.72,1104.39Z"/></svg>