<svg id="logo" xmlns="http://www.w3.org/2000/svg" xmlns:xlink="http://www.w3.org/1999/xlink" viewBox="0 0 1052.38 1185.71"><defs><style>.cls-1,.cls-2,.cls-3,.cls-4,.cls-5{isolation:isolate;}.cls-1{font-size:144.38px;fill:#fff;font-family:Montserrat-Bold, Montserrat;font-weight:700;letter-spacing:0.05em;}.cls-3,.cls-4,.cls-5{font-size:63.54px;fill:#a0a0a0;font-family:Montserrat-SemiBold, Montserrat;font-weight:600;}.cls-3{letter-spacing:0.1em;}.cls-4{letter-spacing:0.09em;}.cls-5{letter-spacing:0.09em;}.cls-6{fill:url(#Degradado_sin_nombre);}.cls-7{fill:url(#Degradado_sin_nombre_2);}.cls-8{fill:url(#Degradado_sin_nombre_3);}.cls-9{fill:url(#Degradado_sin_nombre_4);}.cls-10{fill:url(#Degradado_sin_nombre_5);}.cls-11{fill:url(#Degradado_sin_nombre_6);}.cls-12{fill:url(#Degradado_sin_nombre_7);}.cls-13{fill:url(#Degradado_sin_nombre_8);}.cls-14{fill:url(#Degradado_sin_nombre_9);}</style><linearGradient id="Degradado_sin_nombre" x1="351.41" y1="1233.19" x2="466.45" y2="326.93" gradientTransform="matrix(1, 0, 0, -1, 0, 1199.57)" gradientUnits="userSpaceOnUse"><stop offset="0" stop-color="#e5c499"/><stop offset="0.2" stop-color="#d3b087"/><stop offset="0.5" stop-color="#bd9872"/><stop offset="0.77" stop-color="#b08965"/><stop offset="1" stop-color="#ac8461"/></linearGradient><linearGradient id="Degradado_sin_nombre_2" x1="663.75" y1="1272.84" x2="778.8" y2="366.58" xlink:href="#Degradado_sin_nombre"/><linearGradient id="Degradado_sin_nombre_3" x1="735.33" y1="1281.92" x2="850.37" y2="375.66" xlink:href="#Degradado_sin_nombre"/><linearGradient id="Degradado_sin_nombre_4" x1="794.49" y1="873.99" x2="812.43" y2="801.03" xlink:href="#Degradado_sin_nombre"/><linearGradient id="Degradado_sin_nombre_5" x1="504.95" y1="1179.4" x2="518.77" y2="1098.01" xlink:href="#Degradado_sin_nombre"/><linearGradient id="Degradado_sin_nombre_6" x1="381.03" y1="1015.64" x2="383.64" y2="977.55" xlink:href="#Degradado_sin_nombre"/><linearGradient id="Degradado_sin_nombre_7" x1="546.8" y1="1257.98" x2="661.84" y2="351.72" xlink:href="#Degradado_sin_nombre"/><linearGradient id="Degradado_sin_nombre_8" x1="540.56" y1="1257.19" x2="655.6" y2="350.93" xlink:href="#Degradado_sin_nombre"/><linearGradient id="Degradado_sin_nombre_9" x1="494.68" y1="1251.37" x2="609.72" y2="345.11" xlink:href="#Degradado_sin_nombre"/></defs><text class="cls-1" transform="translate(1.88 1055.35)">POETEANDO</text><g class="cls-2"><text class="cls-3" transform="translate(65.39 1162.99)">POEMAS A </text><text class="cls-4" transform="translate(495.7 1162.99)">T</text><text class="cls-3" transform="translate(539.48 1162.99)">U A</text><text class="cls-5" transform="translate(673.8 1162.99)">L</text><text class="cls-4" transform="translate(717.39 1162.99)">C</text><text class="cls-3" transform="translate(768.99 1162.99)">ANCE</text></g><path class="cls-6" d="M334.86,646.28c-8.55-10.8-20.3-18.48-30.58-27.64-8.55-7.62-16.43-17-19.34-27.9a23.88,23.88,0,0,0,8.94,6.86c5.14,2.35,10.81,3.21,16.41,3.88a122.11,122.11,0,0,1,13.6,2,69.24,69.24,0,0,1-5.13-6.56c-3.57-5.14-6.63-10.62-10.12-15.81a113.34,113.34,0,0,0-15.08-18c4.44,1.46,9,2.62,13.5,3.91,7.65,2.18,15.35,4.84,21.61,9.74a42.57,42.57,0,0,1,11.1,13.6C337.6,577.24,330.94,564.83,323,554c-7.51-10.33-16.27-19.82-22.5-31A81.26,81.26,0,0,1,290.87,493a76.84,76.84,0,0,0,19,31.66c9.7,9.85,21.72,17.26,30.92,27.59,9.86,11.06,17.38,30.13,17.9,45.13,2-10.33,0-21.47-3.7-31.46-4.78-12.73-12.25-24.25-18.15-36.5s-10.3-25.88-8.26-39.32c2.51-16.54,14.23-30.15,19.55-46a62.37,62.37,0,0,0,.77-36.35c4.3,6.17,7,13.53,8.84,20.88,2.61,10.45,3.74,21.25,6.87,31.56A58.12,58.12,0,0,0,375.82,481c-5.55-17.13-5.6-36.25-1.48-53.94,6-25.61,19.8-48.7,35.12-70.08,9.14-12.73,18.93-25.13,26-39.13a88.41,88.41,0,0,0,8.23-24.06,178.55,178.55,0,0,1-8.92,59.72c-3.63,11-8.33,21.6-11.73,32.66-2.71,8.83-4.6,18.07-4.35,27.25,1.08-9.74,4.69-19.4,9.23-28.16,7.31-14.11,17-26.9,23.58-41.38a152.53,152.53,0,0,0,7.76-22.21c2.63-9.45,4.76-19.08,7.4-28.52,3.18-11.39,8-24.24,15.65-35.16a86.47,86.47,0,0,0-6.54,21c-2.44,12.83-2.77,25.9-4.44,38.83a204.54,204.54,0,0,1-5.94,29.49c12.6-27.86,16.43-60.3,33.68-85.79,10.47-15.46,25.25-27.4,39.79-39.1s29.32-23.67,39.73-39.16c9-13.45,14.45-30.18,12-46a67.84,67.84,0,0,1-12.82,34.07h0a17.2,17.2,0,0,0-25.93-6.71L231.08,402,211,416.85a38.67,38.67,0,0,0-12,47.52L336,755.79a4.19,4.19,0,0,0,7.89-1c2.43-11.91,4.91-23.82,6.32-35.88C353.11,693.68,350.64,666.19,334.86,646.28Z"/><path class="cls-7" d="M844.06,143.41c-7.63-12.44-19.72-21.82-33.17-27.48s-28.21-7.78-42.8-7.63a145.42,145.42,0,0,0-69,18.4c3.61-3.91,7.44-7.62,10.91-11.67a86.15,86.15,0,0,0,17.29-32.12A111,111,0,0,1,708,98.46c-13.69,8.84-28.76,15.3-43.42,22.45-24.88,12.13-49.43,27-65.76,49.34C586.57,187,579.68,207,571.07,225.85c-5.9,12.92-13,25.8-22.59,36.1,10.27-7.72,18.42-18.67,24.83-30,9.52-16.79,16.33-35.13,27.48-50.87,16.41-23.16,41-39,65.85-52.8,15.64-8.68,31.72-16.83,46.85-26.31a50.3,50.3,0,0,1-7,8.73c-6.1,6.18-13.24,11.34-18.68,18.1-5.85,7.29-9.56,16.21-14,24.48A169.46,169.46,0,0,1,743,118.63c15-3.56,30.72-5,46-2.64s30.12,8.78,41.28,19.46,18.32,25.85,17.94,41.3a46.53,46.53,0,0,1-11,28.78c-.71.84-1.46,1.65-2.24,2.43a44.28,44.28,0,0,0,15.45-22.52C854.54,171.44,851.69,155.85,844.06,143.41Z"/><path class="cls-8" d="M841.6,186.46a24.48,24.48,0,0,0-2.73-7.38,27.58,27.58,0,0,0-8.45-9.2c-7.63-5.2-17.28-6.71-26.5-6.1-23,1.54-43.29,15-61,29.67-13.36,11-26.16,23.13-40.6,32.54,8.14-.38,16.14-3.77,23-8.36,8.51-5.71,15.62-13.23,23.15-20.18,11.07-10.23,23.35-19.45,37.34-25.07,10.41-4.18,22-6.29,32.92-3.73C828.44,170.94,837.5,177.44,841.6,186.46Z"/><path class="cls-9" d="M836.28,357.69c-19.89-6.64-29.06-22.81-32.42-38.77a1.23,1.23,0,0,0-2.41,0c-3.37,16-12.53,32.13-32.42,38.77a1.14,1.14,0,0,0-.74,1.43,1.18,1.18,0,0,0,.74.74c19.89,6.64,29,22.81,32.42,38.77a1.23,1.23,0,0,0,2.41,0c3.36-16,12.53-32.13,32.42-38.77a1.14,1.14,0,0,0,.73-1.44A1.11,1.11,0,0,0,836.28,357.69Z"/><path class="cls-10" d="M478.26,62.1c19.89,6.64,29,22.81,32.42,38.77a1.23,1.23,0,0,0,2.41,0c3.37-16,12.53-32.13,32.42-38.77a1.14,1.14,0,0,0,.73-1.44,1.11,1.11,0,0,0-.73-.73c-19.89-6.64-29-22.81-32.42-38.77a1.23,1.23,0,0,0-2.41,0c-3.37,16-12.53,32.13-32.42,38.77a1.14,1.14,0,0,0-.74,1.43A1.18,1.18,0,0,0,478.26,62.1Z"/><path class="cls-11" d="M365.58,204.51c9.95,3.32,14.53,11.4,16.21,19.38a.62.62,0,0,0,1.21,0c1.68-8,6.26-16.06,16.21-19.4a.57.57,0,0,0,.36-.72.58.58,0,0,0-.36-.36c-10-3.32-14.53-11.4-16.21-19.38a.62.62,0,0,0-.74-.46.6.6,0,0,0-.47.46c-1.68,8-6.26,16.06-16.21,19.38a.59.59,0,0,0-.35.75A.6.6,0,0,0,365.58,204.51Z"/><path class="cls-12" d="M477.76,864.66,797,738.29a49.27,49.27,0,0,0,31-42.88l.76-12.58-329,167.66-23.09,11.77a1.31,1.31,0,0,0-.56,1.78A1.33,1.33,0,0,0,477.76,864.66Z"/><path class="cls-13" d="M804.73,634.79v-.27c-68.48,46-262.52,176.55-312.65,212-7.67,5.43-12,8.62-11.93,8.93L772.78,697.27A62,62,0,0,0,804.73,634.79Z"/><path class="cls-14" d="M837,737.6,449.43,879a1.64,1.64,0,0,1-2.13-.92,1.66,1.66,0,0,1,.59-1.95L755.63,648.38a52.26,52.26,0,0,0,16.21-64.22c-32.4-68.92-68.48-145.67-104-221.34A16.15,16.15,0,0,1,670,345.63c6.25-7.53,13.35-14.3,19.73-21.72a146.85,146.85,0,0,0,26.13-44.28A53.82,53.82,0,0,1,700.64,290c-7.39,3.4-15.64,5.2-23.68,6.41,19.55-7.87,36.12-19.22,48.31-36.41,6.47-9.11,10.74-18.56,16.44-27.54h0v-.06a83.86,83.86,0,0,1,6.91-9.51,66.74,66.74,0,0,1,5-5.36l.12-.11a66.12,66.12,0,0,1,41.33-18.6,54.92,54.92,0,0,0-6.54-.14h0a58.65,58.65,0,0,0-35.86,13.76c-17.35,14.86-24.56,38.67-40.82,54.71-11.92,11.76-27.76,18.45-42.69,26-9.76,5-21.27,11.36-30.25,19.34h0a58.86,58.86,0,0,0-7.68,8.1c18.66-17.16,41.46-15.76,60.7-22.72a49.71,49.71,0,0,0,15.38-8.57c-4,11.27-9.83,17.43-18.25,26.09-1.42,1.45-2.85,2.87-4.31,4.28-10.12,9.74-21.18,18.54-30.44,29.11-8.54,9.75-15.54,21-25.53,29.25-12.61,10.42-28.83,15.15-43.68,22-8.52,4-17,9.15-23.5,15.87-.6.61-1.19,1.24-1.74,1.88,9.52-6.93,21-11.38,32.33-15q5.44-1.74,10.93-3.3h0q9-2.54,18.09-4.62c2-.45,4-.9,6-1.4a92,92,0,0,0-26.52,27.82c-7,11.36-11.42,24.17-18.72,35.34-12.11,18.53-31.13,31.18-51.32,40.69A115.41,115.41,0,0,0,559,486.42a70.33,70.33,0,0,0,21-17.63c-.66,1.22-1.32,2.38-2,3.51-13.06,21.56-31.19,29.09-54,39.42-11.6,4.63-24,8.7-33.55,16.45,7.9-3.27,16.47-5.07,25-6.44,9.18-1.47,18.47-2.51,27.5-4.65h0c2.41-.56,4.8-1.2,7.17-2,8.23-2.61,16.26-6.68,22.47-12.57-6.44,10.75-17.35,18.72-28.87,24.09-13.81,6.44-28.82,9.83-43.16,15-10.43,3.73-20.79,8.67-29.15,15.77-.68.58-1.35,1.17-2,1.77a59.72,59.72,0,0,1,35.27-4.78,74.24,74.24,0,0,1,7.77,1.83c4.9,1.37,9.73,3,14.64,4.4A61.5,61.5,0,0,0,540.52,563c-7.07,2-14.9,1.55-22.37,1.23-9.72-.41-19.57-.47-29.06,1.73a49.05,49.05,0,0,0-17.45,7.64c.67-.12,1.33-.22,2-.3h0a34.77,34.77,0,0,1,10.77.46c7.13,1.36,13.8,4.45,20.39,7.5,3.88,1.79,7.8,3.6,11.84,5h-.31a49.66,49.66,0,0,0-18.28,5.64c-7.23,3.89-13.41,9.51-20.13,14.23a41.45,41.45,0,0,1,19.36,4.74c10,5.19,17.91,13.86,23.88,23.44,5.42,8.68,9.51,18.32,16.29,26a47.9,47.9,0,0,0,19.39,13.19c-19-3.27-34.39-13.64-48-24-7.83-5.93-15.61-12.5-25.07-15.17-9.63-2.73-20.09-1.07-29.37,2.7a100.52,100.52,0,0,0-16.86,9.13,45.33,45.33,0,0,1,15.2,10.67c6.75,6.91,11.41,15.68,14.4,24.86A106.52,106.52,0,0,1,471,698.36a56.11,56.11,0,0,0-20-16.57c-15.79-7.5-35.36-5.37-50,4.12a59.94,59.94,0,0,0-17.74,18q2.94-15.36,6.36-30.6A846.61,846.61,0,0,1,462.9,473C471,457.16,479.78,441.6,489,426.31s18.79-30.35,28.91-45.07a890.23,890.23,0,0,1,66-84.45,875.69,875.69,0,0,1,75.76-75.94q20.08-17.79,41.34-34.23,10.64-8.18,21.56-16c6.46-4.56,13-9,19.66-13.19a.21.21,0,0,1,.11-.08h.06l2.43-1.51h.06a2.69,2.69,0,0,0,1.31-2.64,2.75,2.75,0,0,0-3-2.42,2.57,2.57,0,0,0-1.07.36c-7.9,4.65-15.42,9.56-22.9,14.64S704.28,176.11,697,181.49q-21.75,16.14-42.32,33.77a880.9,880.9,0,0,0-77.86,75.26,898.24,898.24,0,0,0-68.27,84.21q-15.78,22-30.14,45.13c-9.59,15.36-18.75,31-27.31,46.95a862.17,862.17,0,0,0-78.3,202.41,893.66,893.66,0,0,0-19.69,107.07,983.76,983.76,0,0,0-7,102.2c-.08,4.84,0,10,0,15.1a3.38,3.38,0,0,0,5.58,2.57l11.5-9.89a11.53,11.53,0,0,0,4-8.73h0q0-26.19,1.42-52.33,10.1,21.51,19.75,42a51.45,51.45,0,0,0,60.32,27.67c78.53-21.81,248.93-69.17,347.94-96.68a55.83,55.83,0,0,0,40.44-60.59ZM463.69,646.18c1-.07,2.1-.07,3.13-.06h.87c23.43.45,43.69,17.71,47.38,43.4q-2.1-1.42-4.32-2.73c-9.39-5.55-20-9.71-27.82-17.26-7.24-7-11.74-16.74-19.21-23.35Z"/></svg>